<svg xmlns="http://www.w3.org/2000/svg" xmlns:xlink="http://www.w3.org/1999/xlink" id="Capa_1" x="0" y="0" enable-background="new 0 0 488.664 488.664" version="1.1" viewBox="0 0 488.664 488.664" xml:space="preserve"><g><g><path d="M236.132,64.664c41.5-4.6,77.9,21.8,88.7,59c3.7,12.7,17.5,23,30.7,23l0,0c21.6,0,36.9-20.8,30.8-41.5 c-18.3-62-76.6-107.1-145-105.1c-79.9,2.3-142.5,70-142.5,150v47.7h-3.5c-21.4,0-38.7,17.3-38.7,38.7v213.5 c0,21.4,17.3,38.7,38.7,38.7h298c21.4,0,38.7-17.3,38.7-38.7v-213.6c0-21.4-17.3-38.7-38.7-38.7h-1h-64.2h-165.1v-48.6 C163.032,106.664,193.932,69.364,236.132,64.664z M273.032,401.364c0.9,4.6-2.6,8.8-7.2,8.8h-21.7h-21.8c-4.7,0-8.1-4.3-7.2-8.8 l8.3-40.9c-8.2-7-12.9-17.9-11-29.9c2.2-14,13.8-25,27.9-26.7c19.5-2.3,36.1,12.9,36.1,32c0,10-4.6,19-11.8,24.9L273.032,401.364z"/></g></g></svg>