<svg xmlns="http://www.w3.org/2000/svg" xmlns:xlink="http://www.w3.org/1999/xlink" id="Capa_1" x="0" y="0" enable-background="new 0 0 490.138 490.138" version="1.1" viewBox="0 0 490.138 490.138" xml:space="preserve"><g><g><path d="M14.197,194.15c-9.1-24.5-15.4-49.7-13.3-75.7c1.4-16.1,7.7-30.1,19.6-42c12.6-12.6,25.3-25.2,37.9-37.8 c16.8-16.1,37.8-16.1,54,0c10.5,9.8,20.3,20.3,30.8,30.8c9.8,9.8,19.6,19.6,30.1,30.1c17.5,17.5,17.5,37.8,0,55.4 c-12.6,12.6-24.5,25.2-37.8,37.1c-3.5,3.5-3.5,5.6-2.1,9.8c8.4,20.3,20.3,37.8,33.6,54.7c27.3,33.6,58.2,63.1,94.6,86.2 c7.7,4.9,16.8,8.4,24.5,13.3c4.2,2.1,7,1.4,10.5-2.1c12.6-12.6,25.2-25.2,37.8-37.8c16.8-16.8,37.8-16.8,54,0 c20.3,20.3,40.6,40.6,61,61c16.8,16.8,16.8,37.8,0,55.4c-11.2,11.9-23.8,22.4-34.3,35c-16.1,17.5-35.7,23.8-58.9,22.4 c-32.2-2.1-62.4-13.3-91.8-27.3c-65.2-31.5-121.2-75.7-168.2-131.7C61.897,289.45,33.097,245.35,14.197,194.15z"/><path d="M438.697,96.65l18.7,18.7l22.8,22.8c12.6,12.6,12.6,33,0,45.6l0,0c-12.6,12.6-33,12.6-45.6,0l-22.8-22.8l-18.7-18.8 l-18.7,18.7l-22.8,22.8c-12.6,12.6-33,12.6-45.6,0l0,0c-12.6-12.6-12.6-33,0-45.6l22.8-22.8l18.7-18.7l-41.5-41.5 c-12.6-12.6-12.6-33,0-45.6l0,0c12.6-12.6,33-12.6,45.6,0l41.5,41.6l41.5-41.5c12.6-12.6,33-12.6,45.6,0l0,0 c12.6,12.6,12.6,33,0,45.6L438.697,96.65z"/></g></g></svg>