<svg xmlns="http://www.w3.org/2000/svg" xmlns:xlink="http://www.w3.org/1999/xlink" id="Capa_1" x="0" y="0" enable-background="new 0 0 490.3 490.3" version="1.1" viewBox="0 0 490.3 490.3" xml:space="preserve"><g><path d="M0,82.746v235.6c0,28.1,22.7,50.8,50.8,50.8h11.3v81.8c0,6.6,8,9.9,12.7,5.2l87-87h277.7c28.1,0,50.8-22.7,50.8-50.8 v-235.6c0-28.1-22.7-50.8-50.8-50.8H50.8C22.7,31.946,0,54.646,0,82.746z M99.7,260.346c0-3.6,2.9-6.5,6.5-6.5h156 c3.6,0,6.5,2.9,6.5,6.5v25.7c0,3.6-2.9,6.5-6.5,6.5H106.1c-3.6,0-6.5-2.9-6.5-6.5v-25.7H99.7z M99.2,187.746c0-3.6,2.9-6.5,6.5-6.5 h278.9c3.6,0,6.5,2.9,6.5,6.5v25.7c0,3.6-2.9,6.5-6.5,6.5H105.7c-3.6,0-6.5-2.9-6.5-6.5V187.746z M99.2,115.146 c0-3.6,2.9-6.5,6.5-6.5h278.9c3.6,0,6.5,2.9,6.5,6.5v25.7c0,3.6-2.9,6.5-6.5,6.5H105.7c-3.6,0-6.5-2.9-6.5-6.5V115.146z"/></g></svg>