<svg xmlns="http://www.w3.org/2000/svg" width="20" height="20" viewBox="0 0 20 20"><path fill="#74A3FC" fill-rule="evenodd" d="M10 1.175a8.775 8.775 0 1 0-.04 17.55A8.775 8.775 0 0 0 10 1.175zm4.575 7.675l-1.895 1.815a.405.405 0 0 0-.1.455l1.055 2.69a.42.42 0 0 1-.605.5l-2.815-1.67a.44.44 0 0 0-.43 0L6.96 14.315a.42.42 0 0 1-.605-.5l1.07-2.77a.42.42 0 0 0-.11-.46L5.45 8.855a.42.42 0 0 1 .29-.725h2.385c.17 0 .324-.103.39-.26L9.61 5.155a.42.42 0 0 1 .78 0l1.11 2.72c.066.157.22.26.39.26h2.41a.415.415 0 0 1 .275.715z"/></svg>