<svg xmlns="http://www.w3.org/2000/svg" width="12" height="12" viewBox="0 0 12 12">
    <g fill="#FFF" fill-rule="nonzero">
        <path d="M1.356 8.289a.252.252 0 0 1 .423-.111l1.026 1.026 1.029 1.026a.255.255 0 0 1-.114.423l-1.404.375-1.401.372a.255.255 0 0 1-.3-.3l.378-1.401.363-1.41zM2.57 6.914l4.097-4.097a.88.88 0 0 1 1.245 0L9.23 4.135a.88.88 0 0 1 0 1.245L5.133 9.477a.88.88 0 0 1-1.244 0L2.57 8.159a.88.88 0 0 1 0-1.245zM7.912 1.572L8.61.874a.9.9 0 0 1 1.273 0l1.272 1.273a.9.9 0 0 1 0 1.272l-.697.698a.264.264 0 0 1-.374 0L7.912 1.945a.264.264 0 0 1 0-.373z"/>
    </g>
</svg>
