<svg xmlns="http://www.w3.org/2000/svg" xmlns:xlink="http://www.w3.org/1999/xlink" id="Capa_1" x="0" y="0" enable-background="new 0 0 490 490" version="1.1" viewBox="0 0 490 490" xml:space="preserve"><g><path d="M59.5,417.9c0,38.9,35.7,72.1,74.6,72.1H355c38.9,0,75.5-33.1,75.5-72.1V114.5h-73.3c0-0.7,0.1-1.5,0.1-2.2 C357.3,50.4,306.9,0,245,0S132.7,50.4,132.7,112.3c0,0.7,0.1,1.5,0.1,2.2H59.5V417.9z M245,41.4c39.1,0,71,31.8,71,71 c0,0.7-0.1,1.5-0.1,2.2H174.1c0-0.7-0.1-1.5-0.1-2.2C174,73.2,205.9,41.4,245,41.4z M170.5,244.4c9.6-9.6,22.3-14.8,35.8-14.8 s26.3,5.3,35.9,14.9l2.8,2.8l2.8-2.8c9.6-9.6,22.3-14.9,35.9-14.9c13.5,0,26.2,5.3,35.8,14.8c9.6,9.6,14.8,22.3,14.8,35.9 c0,13.5-5.3,26.3-14.9,35.8L250.5,385c-1.4,1.4-3.4,2.3-5.5,2.3s-4-0.8-5.5-2.3l-69-69c-9.6-9.6-14.9-22.3-14.9-35.8 C155.7,266.7,160.9,253.9,170.5,244.4z"/></g></svg>