<svg xmlns="http://www.w3.org/2000/svg" xmlns:xlink="http://www.w3.org/1999/xlink" id="Capa_1" x="0" y="0" enable-background="new 0 0 489.3 489.3" version="1.1" viewBox="0 0 489.3 489.3" xml:space="preserve"><g><g><circle cx="105" cy="122.324" r="18.8"/><circle cx="167.7" cy="122.324" r="18.8"/><circle cx="230.4" cy="122.324" r="18.8"/><path d="M48,0.824h239.4c26.5,0,48,21.6,48,48v103h-33.5v-103c0-8-6.5-14.5-14.5-14.5H48c-8,0-14.5,6.5-14.5,14.5v145.1 c0,8,6.5,14.5,14.5,14.5h23.7v37.7l37.5-37.5v47.4l-40.3,40.3c-3.4,3.4-7.9,5.3-12.7,5.3l0,0c-4.6,0-9-1.7-12.3-4.8 c-3.6-3.4-5.7-8.2-5.7-13.2v-42.7c-21.8-4.5-38.2-23.9-38.2-47v-145C0,22.424,21.5,0.824,48,0.824z"/><path d="M453.3,184.924H176.6c-20,0-36.2,16.2-36.2,36.2v167.7c0,20,16.2,36.2,36.2,36.2h197.6l61.9,61.9c3.3,3.3,9,1,9-3.7v-58.2 h8c20,0,36.2-16.2,36.2-36.2v-167.7C489.4,201.124,473.2,184.924,453.3,184.924z M331.4,365.724c0,2.5-2.1,4.6-4.6,4.6H215.7 c-2.5,0-4.6-2.1-4.6-4.6v-18.3c0-2.5,2.1-4.6,4.6-4.6h111c2.5,0,4.6,2.1,4.6,4.6v18.3H331.4z M418.8,314.024 c0,2.5-2.1,4.6-4.6,4.6H215.7c-2.5,0-4.6-2.1-4.6-4.6v-18.3c0-2.5,2.1-4.6,4.6-4.6h198.5c2.5,0,4.6,2.1,4.6,4.6V314.024z M418.8,262.424c0,2.5-2.1,4.6-4.6,4.6H215.7c-2.5,0-4.6-2.1-4.6-4.6v-18.3c0-2.5,2.1-4.6,4.6-4.6h198.5c2.5,0,4.6,2.1,4.6,4.6 V262.424z"/></g></g></svg>