<svg xmlns="http://www.w3.org/2000/svg" xmlns:xlink="http://www.w3.org/1999/xlink" id="Capa_1" x="0" y="0" enable-background="new 0 0 490.8 490.8" version="1.1" viewBox="0 0 490.8 490.8" xml:space="preserve"><g><g><path d="M418.95,127.9h-347c-3.2,0-5.8,2.6-5.8,5.8v32c0,3.2,2.6,5.8,5.8,5.8h30.5l23.8,281.5c1.8,21.4,19.7,37.8,41.1,37.8h160.7 c21.7,0,39.7-16.8,41.2-38.5l19.1-280.8h30.5c3.2,0,5.8-2.6,5.8-5.8v-32C424.65,130.4,422.05,127.9,418.95,127.9z"/><path d="M418.95,59.7h-113c0-0.5,0.1-1.1,0.1-1.6V40.6c0-22.4-18.2-40.6-40.6-40.6h-40c-22.4,0-40.6,18.2-40.6,40.6v17.5 c0,0.5,0.1,1.1,0.1,1.6h-35.2h-77.8c-3.2,0-5.8,2.6-5.8,5.8v32c0,3.2,2.6,5.8,5.8,5.8h346.9c3.2,0,5.8-2.6,5.8-5.8v-32 C424.65,62.2,422.05,59.7,418.95,59.7z M219.35,40.6c0-3.4,2.8-6.2,6.2-6.2h39.9c3.4,0,6.2,2.8,6.2,6.2v17.5 c0,0.6-0.2,1.1-0.3,1.6h-51.6c-0.1-0.5-0.3-1-0.3-1.6V40.6H219.35z"/></g></g></svg>