<svg xmlns="http://www.w3.org/2000/svg" xmlns:xlink="http://www.w3.org/1999/xlink" id="Capa_1" x="0" y="0" enable-background="new 0 0 489 489" version="1.1" viewBox="0 0 489 489" xml:space="preserve"><g><g><path d="M309,392.9c-7.4,0-14.8-0.5-22.1-1.4v23c-0.3,0-0.7,0.1-1,0.1h-189c-0.4,0-0.7-0.1-1-0.1V74.7c0.3,0,0.7-0.1,1-0.1h189 c0.3,0,0.6,0.1,0.9,0.1v22.8c7.2-0.9,14.6-1.4,22.1-1.4c8.9,0,17.6,0.7,26,1.9V70.8v-16C334.9,24.7,311,0,281.8,0h-181 C71.6,0,47.7,24.7,47.7,54.8v16.1v353.6v9.7c0,30.1,23.9,54.8,53.1,54.8H282c29.2,0,53.1-24.7,53.1-54.8v-9.7V391 C326.6,392.3,317.9,392.9,309,392.9z M214.2,466.1h-51.1c-7.6,0-13.8-6.4-13.8-14.2c0-7.8,6.2-14.2,13.8-14.2h51.1 c7.6,0,13.8,6.4,13.8,14.2C228,459.7,221.8,466.1,214.2,466.1z"/><path d="M309.1,128.5c-73,0-132.2,51.9-132.2,115.9c0,27.6,11,52.9,29.4,72.8c-3.4,9.2-9.6,19.6-20.9,27c-2.8,1.9-2,6.2,1.4,6.6 c11.7,1.6,31.9,2,50.5-9.2c20.7,11.8,45.3,18.6,71.8,18.6c73,0,132.2-51.9,132.2-115.9S382.1,128.5,309.1,128.5z M381.1,271.4 c0,4.2-4.5,6.8-8.1,4.7l-22.4-13v3.7c0,11.1-9,20.1-20.1,20.1h-67.7c-11.1,0-20.1-9-20.1-20.1v-44.7c0-11.1,9-20.1,20.1-20.1h67.7 c11.1,0,20.1,9,20.1,20.1v3.7l22.4-13c3.6-2.1,8.1,0.5,8.1,4.7V271.4z"/></g></g></svg>