<svg xmlns="http://www.w3.org/2000/svg" xmlns:xlink="http://www.w3.org/1999/xlink" id="Capa_1" x="0" y="0" enable-background="new 0 0 489 489" version="1.1" viewBox="0 0 489 489" xml:space="preserve"><g><g><path d="M0,437.825v-345.6c0-13.5,10.9-24.4,24.4-24.4h255.1h51.3l-48.7,48.7h-2.6H48.7v296.9h296.9v-53.3v-72.8l48.7-48.7v121.5 v77.7c0,13.4-10.9,24.4-24.4,24.4H24.4C10.9,462.225,0,451.325,0,437.825z M212.1,250.825l-52-52c-14.6-14.6-38.3-14.6-52.9,0 c-7.1,7.1-11,16.5-11,26.5s3.9,19.4,11,26.4l78.4,78.4c14.6,14.6,38.3,14.6,52.9,0L478,90.625c7.1-7.1,11-16.5,11-26.4 c0-10-3.9-19.4-11-26.5c-14.6-14.6-38.3-14.6-52.9,0L212.1,250.825z"/></g></g></svg>