<svg xmlns="http://www.w3.org/2000/svg" xmlns:xlink="http://www.w3.org/1999/xlink" id="Capa_1" x="0" y="0" enable-background="new 0 0 490 490" version="1.1" viewBox="0 0 490 490" xml:space="preserve"><g><g><path d="M311.5,184.4c0,36.1-29.2,65.3-65.3,65.3s-65.3-29.2-65.3-65.3s29.2-65.3,65.3-65.3S311.5,148.4,311.5,184.4z M245,0 C109.9,0,0,109.9,0,245s109.9,245,245,245s245-109.9,245-245S380.1,0,245,0z M357.3,404.7c-8.2-65.7-35.2-133-111.1-133 c-76.5,0-103.3,68.3-111.3,134.5C83.5,371,49.7,311.9,49.7,245c0-107.7,87.6-195.3,195.3-195.3S440.3,137.3,440.3,245 C440.3,310.9,407.5,369.3,357.3,404.7z"/></g></g></svg>