<svg xmlns="http://www.w3.org/2000/svg" xmlns:xlink="http://www.w3.org/1999/xlink" id="Capa_1" x="0" y="0" enable-background="new 0 0 493.1 493.1" version="1.1" viewBox="0 0 493.1 493.1" xml:space="preserve"><g><g><path d="M0,475.6v-231c0-9.2,7.5-16.7,16.7-16.7h95.7c9.2,0,16.7,7.5,16.7,16.7v231c0,9.2-7.5,16.7-16.7,16.7H16.8 C7.5,492.4,0,484.9,0,475.6z M476.4,120.601c9.2,0,16.7,7.5,16.7,16.7v338.3c0,9.2-7.5,16.7-16.7,16.7h-95.7 c-9.2,0-16.7-7.5-16.7-16.7v-338.3c0-9.2,7.5-16.7,16.7-16.7H476.4z M458.6,155.201h-60v302.5h60V155.201z M311.2,17.4v458.3 c0,9.2-7.5,16.7-16.7,16.7h-95.7c-9.2,0-16.7-7.5-16.7-16.7V17.4c0-9.2,7.5-16.7,16.7-16.7h95.7C303.7,0.6,311.2,8.1,311.2,17.4z M216.6,77l41.8-41.8h-41.8V77z M276.6,415.8l-42,42h42V415.8z M276.6,327.5l-60,60v42.7l60-60V327.5z M276.6,239.201l-60,60v42.7 l60-60V239.201z M276.6,150.9l-60,60v42.7l60-60V150.9z M276.6,62.6l-60,60v42.7l60-60V62.6z"/></g></g></svg>