<svg xmlns="http://www.w3.org/2000/svg" xmlns:xlink="http://www.w3.org/1999/xlink" id="Capa_1" x="0" y="0" enable-background="new 0 0 489 489" version="1.1" viewBox="0 0 489 489" xml:space="preserve"><g><g><path d="M151.3,366.8V0h186.4v366.8c0,10-11.9,15.3-19.4,8.6l-66-59.6c-4.4-4-11.1-4-15.5,0l-66,59.6 C163.2,382.1,151.3,376.8,151.3,366.8z M19.6,489h449.8c10.8,0,19.6-8.8,19.6-19.6V19.6C489,8.8,480.2,0,469.4,0h-90.9v41.4h69.2 v406.2H41.4V41.4h69.1V0H19.6C8.8,0,0,8.8,0,19.6v449.8C0,480.2,8.8,489,19.6,489z"/></g></g></svg>