<?xml version="1.0" encoding="iso-8859-1"?>
<!-- Generator: Adobe Illustrator 19.0.0, SVG Export Plug-In . SVG Version: 6.00 Build 0)  -->
<svg version="1.1" id="Capa_1" xmlns="http://www.w3.org/2000/svg" xmlns:xlink="http://www.w3.org/1999/xlink" x="0px" y="0px"
	 viewBox="0 0 489.2 489.2" style="enable-background:new 0 0 489.2 489.2;" xml:space="preserve">
<g>
	<g>
		<path d="M489.2,409.55V80.65c0-34.9-28.3-63.1-63.1-63.1h-363C28.2,17.55,0,45.85,0,80.65v328.9c0,34.3,27.8,62.1,62.1,62.1h365
			C461.4,471.65,489.2,443.85,489.2,409.55z M402.1,53.05c14.3,0,25.8,11.6,25.8,25.8c0,14.3-11.6,25.8-25.8,25.8
			c-14.3,0-25.8-11.6-25.8-25.8C376.3,64.65,387.8,53.05,402.1,53.05z M326.7,53.05L326.7,53.05L326.7,53.05
			c12.5,0,22.9,8.8,25.3,20.6c0.3,1.7,0.5,3.4,0.5,5.2c0,1.8-0.2,3.5-0.5,5.2c-2.4,11.8-12.8,20.6-25.3,20.6l0,0l0,0
			c-14.3,0-25.8-11.6-25.8-25.8C300.9,64.65,312.4,53.05,326.7,53.05z M251.3,53.05c14.3,0,25.8,11.6,25.8,25.8
			c0,14.3-11.6,25.8-25.8,25.8c-14.3,0-25.8-11.6-25.8-25.8C225.4,64.65,237,53.05,251.3,53.05z M419.6,430.75h-350
			c-15.9,0-28.7-12.9-28.7-28.7v-265.1h407.4v265.1C448.3,417.85,435.5,430.75,419.6,430.75z"/>
		<path d="M331.4,303.65l-80.3,80.3c-1.7,1.7-4,2.6-6.4,2.6s-4.7-0.9-6.4-2.6l-80.4-80.4c-11.2-11.2-17.3-26-17.3-41.8
			s6.1-30.6,17.3-41.8c11.1-11.1,26-17.3,41.7-17.3c15.8,0,30.6,6.2,41.8,17.3l3.3,3.3l3.2-3.2c11.2-11.2,26-17.3,41.8-17.3
			s30.6,6.1,41.7,17.3c11.2,11.2,17.3,26,17.3,41.8S342.5,292.55,331.4,303.65z"/>
	</g>
</g>
<g>
</g>
<g>
</g>
<g>
</g>
<g>
</g>
<g>
</g>
<g>
</g>
<g>
</g>
<g>
</g>
<g>
</g>
<g>
</g>
<g>
</g>
<g>
</g>
<g>
</g>
<g>
</g>
<g>
</g>
</svg>
