<svg xmlns="http://www.w3.org/2000/svg" xmlns:xlink="http://www.w3.org/1999/xlink" id="Capa_1" x="0" y="0" enable-background="new 0 0 489.2 489.2" version="1.1" viewBox="0 0 489.2 489.2" xml:space="preserve"><g><g><path d="M177.8,237.95c0,4.5-3.6,8.1-8.1,8.1h-30.4c-4.5,0-8.1-3.6-8.1-8.1v-30.4c0-4.5,3.6-8.1,8.1-8.1h30.4 c4.5,0,8.1,3.6,8.1,8.1V237.95z M241.3,207.55c0-4.5-3.6-8.1-8.1-8.1h-30.4c-4.5,0-8.1,3.6-8.1,8.1v30.4c0,4.5,3.6,8.1,8.1,8.1 h30.4c4.5,0,8.1-3.6,8.1-8.1V207.55z M304.8,207.55c0-4.5-3.6-8.1-8.1-8.1h-30.4c-4.5,0-8.1,3.6-8.1,8.1v30.4 c0,4.5,3.6,8.1,8.1,8.1h30.4c4.5,0,8.1-3.6,8.1-8.1V207.55z M177.8,269.45c0-4.5-3.6-8.1-8.1-8.1h-30.4c-4.5,0-8.1,3.6-8.1,8.1 v30.4c0,4.5,3.6,8.1,8.1,8.1h30.4c4.5,0,8.1-3.6,8.1-8.1V269.45z M241.3,269.45c0-4.5-3.6-8.1-8.1-8.1h-30.4 c-4.5,0-8.1,3.6-8.1,8.1v30.4c0,4.5,3.6,8.1,8.1,8.1h30.4c4.5,0,8.1-3.6,8.1-8.1V269.45z M296.7,261.25h-30.4 c-4.5,0-8.1,3.6-8.1,8.1v30.4c0,4.5,3.6,8.1,8.1,8.1h30.4c4.5,0,8.1-3.6,8.1-8.1v-30.4C304.8,264.95,301.2,261.25,296.7,261.25z M106.2,323.05H75.8c-4.5,0-8.1,3.6-8.1,8.1v30.4c0,4.5,3.6,8.1,8.1,8.1h30.4c4.5,0,8.1-3.6,8.1-8.1v-30.4 C114.3,326.75,110.7,323.05,106.2,323.05z M114.3,269.45c0-4.5-3.6-8.1-8.1-8.1H75.8c-4.5,0-8.1,3.6-8.1,8.1v30.4 c0,4.5,3.6,8.1,8.1,8.1h30.4c4.5,0,8.1-3.6,8.1-8.1V269.45z M233.2,323.05h-30.4c-4.5,0-8.1,3.6-8.1,8.1v30.4 c0,4.5,3.6,8.1,8.1,8.1h30.4c4.5,0,8.1-3.6,8.1-8.1v-30.4C241.3,326.75,237.7,323.05,233.2,323.05z M169.7,323.05h-30.4 c-4.5,0-8.1,3.6-8.1,8.1v30.4c0,4.5,3.6,8.1,8.1,8.1h30.4c4.5,0,8.1-3.6,8.1-8.1v-30.4C177.8,326.75,174.2,323.05,169.7,323.05z M360.2,246.05c4.5,0,8.1-3.6,8.1-8.1v-30.4c0-4.5-3.6-8.1-8.1-8.1h-30.4c-4.5,0-8.1,3.6-8.1,8.1v30.4c0,4.5,3.6,8.1,8.1,8.1 H360.2z M47.7,435.65h230.7c-3.7-11.6-5.8-24-5.9-36.8H47.7c-6,0-10.8-4.9-10.8-10.8v-217.2h361.7v101.1c12.8,0.1,25.2,2,36.8,5.7 V94.75c0-26.3-21.4-47.7-47.7-47.7h-53.4v-29.4c0-9.6-7.8-17.4-17.4-17.4h-27.1c-9.6,0-17.4,7.8-17.4,17.4v29.5H163v-29.5 c0-9.6-7.8-17.4-17.4-17.4h-27.1c-9.6,0-17.4,7.8-17.4,17.4v29.5H47.7C21.4,47.15,0,68.55,0,94.85v293.2 C0.1,414.25,21.4,435.65,47.7,435.65z M398.1,306.75c50.3,0,91.1,40.8,91.1,91.1s-40.8,91.1-91.1,91.1s-91.1-40.8-91.1-91.1 C307,347.45,347.7,306.75,398.1,306.75z M416.4,364.45l-18.3,18.3l-18.3-18.3c-4.1-4.1-10.8-4.1-15,0c-4.1,4.1-4.1,10.8,0,15 l18.3,18.3l-18.3,18.3c-4.1,4.1-4.1,10.8,0,15c4.1,4.1,10.8,4.1,15,0l18.3-18.3l18.3,18.3c4.1,4.1,10.8,4.1,15,0 c4.1-4.1,4.1-10.8,0-15l-18.3-18.3l18.3-18.3c4.1-4.1,4.1-10.8,0-15C427.2,360.35,420.5,360.35,416.4,364.45z"/></g></g></svg>