<?xml version="1.0" encoding="iso-8859-1"?>
<!-- Generator: Adobe Illustrator 19.0.0, SVG Export Plug-In . SVG Version: 6.00 Build 0)  -->
<svg version="1.1" id="Capa_1" xmlns="http://www.w3.org/2000/svg" xmlns:xlink="http://www.w3.org/1999/xlink" x="0px" y="0px"
	 viewBox="0 0 491 491" style="enable-background:new 0 0 491 491;" xml:space="preserve">
<g>
	<g>
		<g>
			<path d="M395.5,491c27.4,0,49.8-22.3,49.8-49.8V236.1c0-27.4-22.3-49.8-49.8-49.8h-300c-27.4,0-49.8,22.3-49.8,49.8v205.1
				c0,27.4,22.3,49.8,49.8,49.8H395.5z M96.6,255.6c-5.2-4.4-5.8-12.1-1.4-17.3s12.1-5.8,17.3-1.4l133,113L378.6,237
				c5.2-4.4,12.9-3.7,17.3,1.4c4.4,5.2,3.7,12.9-1.4,17.3l-95,80.6l95.4,89.8c4.9,4.6,5.2,12.4,0.5,17.3c-2.4,2.6-5.7,3.9-8.9,3.9
				c-3,0-6-1.1-8.4-3.3l-97.5-91.7l-27.2,23.1c-2.3,1.9-5.1,2.9-7.9,2.9c-2.8,0-5.6-1-7.9-2.9l-27.2-23.1L112.9,444
				c-2.4,2.2-5.4,3.3-8.4,3.3c-3.3,0-6.5-1.3-8.9-3.9c-4.6-4.9-4.4-12.7,0.5-17.3l95.4-89.8L96.6,255.6z"/>
		</g>
		<path d="M245.5,0L245.5,0c10.7,0,19.3,8.6,19.3,19.3v117.8c0,10.7-8.6,19.3-19.3,19.3l0,0c-10.7,0-19.3-8.6-19.3-19.3V19.4
			C226.2,8.7,234.8,0,245.5,0z"/>
		<path d="M167.8,62.2L167.8,62.2c10.7,0,19.3,8.6,19.3,19.3v55.6c0,10.7-8.6,19.3-19.3,19.3l0,0c-10.7,0-19.3-8.6-19.3-19.3V81.5
			C148.5,70.9,157.1,62.2,167.8,62.2z"/>
		<path d="M323.2,62.2L323.2,62.2c-10.7,0-19.3,8.6-19.3,19.3v55.6c0,10.7,8.6,19.3,19.3,19.3l0,0c10.7,0,19.3-8.6,19.3-19.3V81.5
			C342.5,70.9,333.9,62.2,323.2,62.2z"/>
	</g>
</g>
<g>
</g>
<g>
</g>
<g>
</g>
<g>
</g>
<g>
</g>
<g>
</g>
<g>
</g>
<g>
</g>
<g>
</g>
<g>
</g>
<g>
</g>
<g>
</g>
<g>
</g>
<g>
</g>
<g>
</g>
</svg>
