<?xml version="1.0" encoding="iso-8859-1"?>
<!-- Generator: Adobe Illustrator 19.0.0, SVG Export Plug-In . SVG Version: 6.00 Build 0)  -->
<svg version="1.1" id="Capa_1" xmlns="http://www.w3.org/2000/svg" xmlns:xlink="http://www.w3.org/1999/xlink" x="0px" y="0px"
	 viewBox="0 0 489.1 489.1" style="enable-background:new 0 0 489.1 489.1;" xml:space="preserve">
<g>
	<g>
		<path d="M193.7,55.2c0-5.3,4.3-9.7,9.7-9.7h82.5c5.3,0,9.7,4.3,9.7,9.7v38.7h45.5V55.2c0-30.4-24.8-55.2-55.2-55.2h-82.5
			c-30.4,0-55.2,24.8-55.2,55.2v38.7h45.5L193.7,55.2L193.7,55.2z"/>
		<path d="M434.4,91.1c0-19.3-22.4-36.8-58.3-49.2v52h0.1c0.2,0.9,0.3,1.8,0.3,2.7c0,21.6-59.1,39-131.9,39
			c-72.9,0-131.9-17.5-131.9-39c0-0.9,0.1-1.8,0.3-2.7v-52C77.1,54.3,54.7,71.8,54.7,91.1l0.5,2.8l64.6,350.3
			c0,24.8,55.8,44.9,124.7,44.9s124.7-20.1,124.7-44.9l64.6-350.3h-0.1L434.4,91.1z"/>
	</g>
</g>
<g>
</g>
<g>
</g>
<g>
</g>
<g>
</g>
<g>
</g>
<g>
</g>
<g>
</g>
<g>
</g>
<g>
</g>
<g>
</g>
<g>
</g>
<g>
</g>
<g>
</g>
<g>
</g>
<g>
</g>
</svg>
