<?xml version="1.0" encoding="iso-8859-1"?>
<!-- Generator: Adobe Illustrator 19.0.0, SVG Export Plug-In . SVG Version: 6.00 Build 0)  -->
<svg version="1.1" id="Capa_1" xmlns="http://www.w3.org/2000/svg" xmlns:xlink="http://www.w3.org/1999/xlink" x="0px" y="0px"
	 viewBox="0 0 489.737 489.737" style="enable-background:new 0 0 489.737 489.737;" xml:space="preserve">
<g>
	<g>
		<g>
			<path d="M266.375,0c-28.4,0-55.7,6.2-79.9,18c-63.9,29.9-108.2,94.4-108.2,169.1v24.7v6.2l-38.1,73.2
				c-9.8,18.6-0.5,33.5,20.1,33.5h18v0.5v31.4v37.1c0,21.6,17.5,39.2,39.2,39.2l54.1-8.2v54.1v0.5c0,6.7,6.2,11.3,13.4,10.3
				l194.3-34.5c7.2-1.5,13.4-8.2,13.4-16v-8.8v-6.7v-99c37.1-34,60.8-83,60.8-137.6C452.975,84,369.475,0,266.375,0z M359.175,278.7
				c-43.1,43.1-108.8,49.7-158.9,20.4l-0.4-0.4c-19.5,15.1-40.8,17.3-55.9,15.1c-4.9-0.9-5.8-7.5-1.3-9.8
				c13.3-6.7,22.2-20,27.1-30.6l-0.9-0.9c-45.7-51.5-43.9-130.1,5.3-179.3c51.1-51.5,134.1-51.5,185.1,0
				C410.275,144.2,410.275,227.2,359.175,278.7z"/>
		</g>
		<path d="M333.875,201.3l-62,62c-1.3,1.3-3.1,2-4.9,2s-3.6-0.7-4.9-2l-62.2-62.1c-8.6-8.6-13.4-20.1-13.4-32.2
			c0-12.2,4.7-23.6,13.3-32.3c8.6-8.6,20-13.3,32.2-13.3s23.7,4.8,32.3,13.4l2.5,2.5l2.5-2.5c8.6-8.6,20.1-13.4,32.3-13.4
			c12.2,0,23.6,4.7,32.2,13.4c8.6,8.6,13.4,20.1,13.3,32.3C347.175,181.2,342.475,192.7,333.875,201.3z"/>
	</g>
</g>
<g>
</g>
<g>
</g>
<g>
</g>
<g>
</g>
<g>
</g>
<g>
</g>
<g>
</g>
<g>
</g>
<g>
</g>
<g>
</g>
<g>
</g>
<g>
</g>
<g>
</g>
<g>
</g>
<g>
</g>
</svg>
