<svg xmlns="http://www.w3.org/2000/svg" xmlns:xlink="http://www.w3.org/1999/xlink" id="Capa_1" x="0" y="0" enable-background="new 0 0 490.2 490.2" version="1.1" viewBox="0 0 490.2 490.2" xml:space="preserve"><g><g><path d="M418.392,291.7l-192.4-215.8c-5.9-6.6-16.3-6.6-22.2,0l-192.4,215.8c-6.5,7.3-1.3,18.9,8.5,18.9h43.7v158.8 c0,11.5,9.3,20.7,20.7,20.7h80.1V384.4c0-8.1,6.6-14.7,14.7-14.7h71.5c8.1,0,14.7,6.6,14.7,14.7v105.8h80.1 c11.5,0,20.7-9.3,20.7-20.7V310.6h43.7C419.692,310.6,424.892,299.1,418.392,291.7z"/><path d="M481.692,48.9l-22.5,22.5c-52.8-52.8-138.7-52.8-191.4,0l-22.5-22.5C310.492-16.3,416.492-16.3,481.692,48.9z M363.492,91.5c20.2,0,39.2,7.9,53.5,22.2l22.5-22.5c-41.9-41.9-110.1-41.9-152,0l22.5,22.5 C324.292,99.3,343.292,91.5,363.492,91.5z M395.992,134.6c-7.8-9.3-19.4-15.2-32.5-15.2s-24.7,6-32.4,15.2l32.4,32.4 L395.992,134.6z"/></g></g></svg>