<?xml version="1.0" encoding="iso-8859-1"?>
<!-- Generator: Adobe Illustrator 19.0.0, SVG Export Plug-In . SVG Version: 6.00 Build 0)  -->
<svg version="1.1" id="Capa_1" xmlns="http://www.w3.org/2000/svg" xmlns:xlink="http://www.w3.org/1999/xlink" x="0px" y="0px"
	 viewBox="0 0 490.7 490.7" style="enable-background:new 0 0 490.7 490.7;" xml:space="preserve">
<g>
	<g>
		<path d="M316.953,411.5V430c0,14.7-10.9,26.9-24.9,28.8l-4.5,16.6c-2.6,9-10.9,15.3-19.8,15.3h-44.8c-9.6,0-17.9-6.4-19.8-15.3
			l-4.5-16.6c-14.1-1.9-24.9-14.1-24.9-28.8v-18.5c0-9.6,7.7-17.9,17.9-17.9h108.1C309.353,394.2,316.953,401.9,316.953,411.5z
			 M331.153,335.6c-3.2,20.2-20.9,35.3-41.3,35.3h-89c-20.9,0-38.3-14.9-41.3-35.3c-3.6-23.3-14.6-45.3-30.8-62.1
			c-28.7-30.1-44.7-69.1-45.4-110c-0.7-89.6,71.1-162.8,160.1-163.5h1.2c89.7,0,162.7,72.4,162.7,161.4c0,41.7-16.6,82.6-45.4,112.1
			C345.453,290.6,334.753,312.1,331.153,335.6z M336.453,248.8c22.5-23,35.4-54.8,35.4-87.4c0-69.4-57-125.9-127.1-125.9h-1
			c-69.4,0.6-125.4,57.8-124.9,127.6c0.5,31.8,13.1,62.4,35.5,85.8c21.2,21.9,35.6,50.8,40.3,81.3c0.5,3.6,3.5,5.2,6.2,5.2h89
			c3.3,0,5.8-2.7,6.2-5.2C300.753,299.4,314.753,271.2,336.453,248.8z M245.353,242.6c-10.5,0-18.9,8.5-18.9,18.9
			c0,10.5,8.5,18.9,18.9,18.9c10.5,0,18.9-8.5,18.9-18.9S255.853,242.6,245.353,242.6z M245.553,229.1L245.553,229.1
			c8.3,0,15-6.6,15.3-14.8l3-105.1c0.3-10.3-8-18.7-18.2-18.7c-10.3,0-18.5,8.5-18.2,18.7l2.9,105.1
			C230.453,222.5,237.253,229.1,245.553,229.1z"/>
	</g>
</g>
<g>
</g>
<g>
</g>
<g>
</g>
<g>
</g>
<g>
</g>
<g>
</g>
<g>
</g>
<g>
</g>
<g>
</g>
<g>
</g>
<g>
</g>
<g>
</g>
<g>
</g>
<g>
</g>
<g>
</g>
</svg>
