<?xml version="1.0" encoding="iso-8859-1"?>
<!-- Generator: Adobe Illustrator 19.0.0, SVG Export Plug-In . SVG Version: 6.00 Build 0)  -->
<svg version="1.1" id="Capa_1" xmlns="http://www.w3.org/2000/svg" xmlns:xlink="http://www.w3.org/1999/xlink" x="0px" y="0px"
	 viewBox="0 0 489.6 489.6" style="enable-background:new 0 0 489.6 489.6;" xml:space="preserve">
<g>
	<g>
		<path d="M316.353,410.5V429c0,14.7-10.8,26.8-24.9,28.7l-4.5,16.6c-2.6,8.9-10.8,15.3-19.8,15.3h-44.7c-9.6,0-17.9-6.4-19.8-15.3
			l-4.5-16.6c-14-1.9-24.9-14-24.9-28.7v-18.5c0-9.6,7.7-17.9,17.9-17.9h107.8C308.653,393.3,316.353,401,316.353,410.5z
			 M330.453,334.9c-3.2,20.1-20.9,35.2-41.2,35.2h-88.9c-20.8,0-38.2-14.8-41.2-35.2c-3.6-23.2-14.5-45.2-30.7-62
			c-28.6-30-44.6-68.9-45.3-109.8c-0.7-89.3,71-162.5,159.8-163.1h1.2c89.5,0,162.3,72.3,162.3,161.1c0,41.6-16.5,82.4-45.3,111.9
			C344.753,289.9,334.053,311.3,330.453,334.9z M335.753,248.2c22.4-23,35.3-54.7,35.3-87.2c0-69.3-56.9-125.6-126.9-125.6h-1
			c-69.2,0.5-125.1,57.6-124.6,127.3c0.5,31.8,13.1,62.2,35.4,85.6c21.2,21.8,35.5,50.7,40.2,81.2c0.5,3.6,3.5,5.1,6.2,5.1h27.7
			V230.7l-37-37c-6.5-6.5-6.5-17.1,0-23.7l0,0c6.5-6.5,17.1-6.5,23.7,0l30,30l30-30c6.5-6.5,17.1-6.5,23.7,0l0,0
			c6.5,6.5,6.5,17.1,0,23.7l-37,37v103.9h27.7c3.3,0,5.8-2.7,6.2-5.2C300.153,298.7,314.053,270.5,335.753,248.2z"/>
	</g>
</g>
<g>
</g>
<g>
</g>
<g>
</g>
<g>
</g>
<g>
</g>
<g>
</g>
<g>
</g>
<g>
</g>
<g>
</g>
<g>
</g>
<g>
</g>
<g>
</g>
<g>
</g>
<g>
</g>
<g>
</g>
</svg>
