<?xml version="1.0" encoding="iso-8859-1"?>
<!-- Generator: Adobe Illustrator 19.0.0, SVG Export Plug-In . SVG Version: 6.00 Build 0)  -->
<svg version="1.1" id="Capa_1" xmlns="http://www.w3.org/2000/svg" xmlns:xlink="http://www.w3.org/1999/xlink" x="0px" y="0px"
	 viewBox="0 0 489.7 489.7" style="enable-background:new 0 0 489.7 489.7;" xml:space="preserve">
<g>
	<path d="M454.9,189.1H294.4v-13.3c0-12.5-10.2-22.7-22.7-22.7h-10V120c0-28-22.8-50.9-50.9-50.9h-55c-9.4,0-17-7.6-17-17V0h-33.9
		v52.2c0,28.1,22.8,50.9,50.9,50.9h55c9.4,0,17,7.6,17,17v33.1h-10c-12.5,0-22.7,10.2-22.7,22.7v13.3H34.7
		c-14.9,0-26.9,12-26.9,26.9v246.7c0,14.9,12,26.9,26.9,26.9H455c14.9,0,26.9-12,26.9-26.9V216C481.8,201.1,469.8,189.1,454.9,189.1
		z M304.1,245.6c0-3.7,3-6.7,6.7-6.7h27.4c3.7,0,6.7,3,6.7,6.7v27c0,3.7-3,6.7-6.7,6.7h-27.4c-3.7,0-6.7-3-6.7-6.7V245.6z
		 M304.9,325.5v27c0,3.7-3,6.7-6.7,6.7h-27.4c-3.7,0-6.7-3-6.7-6.7v-27c0-3.7,3-6.7,6.7-6.7h27.4
		C301.9,318.8,304.9,321.8,304.9,325.5z M224.5,245.6c0-3.7,3-6.7,6.7-6.7h27.4c3.7,0,6.7,3,6.7,6.7v27c0,3.7-3,6.7-6.7,6.7h-27.4
		c-3.7,0-6.7-3-6.7-6.7V245.6z M191,318.8h27.4c3.7,0,6.7,3,6.7,6.7v27c0,3.7-3,6.7-6.7,6.7H191c-3.7,0-6.7-3-6.7-6.7v-27
		C184.3,321.8,187.3,318.8,191,318.8z M144.7,245.6c0-3.7,3-6.7,6.7-6.7h27.4c3.7,0,6.7,3,6.7,6.7v27c0,3.7-3,6.7-6.7,6.7h-27.4
		c-3.7,0-6.7-3-6.7-6.7L144.7,245.6L144.7,245.6z M64.6,245.6c0-3.7,3-6.7,6.7-6.7h27.4c3.7,0,6.7,3,6.7,6.7v27c0,3.7-3,6.7-6.7,6.7
		H71.3c-3.7,0-6.7-3-6.7-6.7V245.6z M105.4,433.1c0,3.7-3,6.7-6.7,6.7H71.3c-3.7,0-6.7-3-6.7-6.7v-27c0-3.7,3-6.7,6.7-6.7h27.4
		c3.7,0,6.7,3,6.7,6.7V433.1z M138.3,359.2h-27.4c-3.7,0-6.7-3-6.7-6.7v-27c0-3.7,3-6.7,6.7-6.7h27.4c3.7,0,6.7,3,6.7,6.7v27
		C145,356.2,142,359.2,138.3,359.2z M344.9,433.1c0,3.7-3,6.7-6.7,6.7h-8.3h-19.1h-52.3h-27.4h-79.8c-3.7,0-6.7-3-6.7-6.7v-27
		c0-3.7,3-6.7,6.7-6.7h79.8h27.4h52.3h19.1h8.3c3.7,0,6.7,3,6.7,6.7V433.1z M377.9,359.2h-27.4c-3.7,0-6.7-3-6.7-6.7v-27
		c0-3.7,3-6.7,6.7-6.7h27.4c3.7,0,6.7,3,6.7,6.7v27C384.5,356.2,381.6,359.2,377.9,359.2z M425,433.1c0,3.7-3,6.7-6.7,6.7h-27.4
		c-3.7,0-6.7-3-6.7-6.7v-27c0-3.7,3-6.7,6.7-6.7h27.4c3.7,0,6.7,3,6.7,6.7V433.1z M425,272.6c0,3.7-3,6.7-6.7,6.7h-27.4
		c-3.7,0-6.7-3-6.7-6.7v-27c0-3.7,3-6.7,6.7-6.7h27.4c3.7,0,6.7,3,6.7,6.7V272.6z"/>
</g>
<g>
</g>
<g>
</g>
<g>
</g>
<g>
</g>
<g>
</g>
<g>
</g>
<g>
</g>
<g>
</g>
<g>
</g>
<g>
</g>
<g>
</g>
<g>
</g>
<g>
</g>
<g>
</g>
<g>
</g>
</svg>
