<?xml version="1.0" encoding="iso-8859-1"?>
<!-- Generator: Adobe Illustrator 19.0.0, SVG Export Plug-In . SVG Version: 6.00 Build 0)  -->
<svg version="1.1" id="Capa_1" xmlns="http://www.w3.org/2000/svg" xmlns:xlink="http://www.w3.org/1999/xlink" x="0px" y="0px"
	 viewBox="0 0 490 490" style="enable-background:new 0 0 490 490;" xml:space="preserve">
<g>
	<g>
		<path d="M385.3,49.8h-72.5C303.5,20.9,276.5,0,244.5,0s-59,20.9-68.3,49.8h-71.5c-23.2,0-42,18.8-42,42V448c0,23.2,18.8,42,42,42
			h280.6c23.2,0,42-18.8,42-42V91.8C427.3,68.6,408.5,49.8,385.3,49.8z M244.5,46.7c13.8,0,25,11.2,25,25s-11.2,25-25,25
			s-25-11.2-25-25S230.7,46.7,244.5,46.7z M354.1,423.7H135.9c-6.1,0-11-4.9-11-11V146.4c0-6.1,4.9-11,11-11h218.2
			c6.1,0,11,4.9,11,11v266.3C365.1,418.8,360.2,423.7,354.1,423.7z"/>
		<rect x="157.6" y="167.6" width="174.8" height="29.7"/>
		<rect x="157.6" y="218.8" width="174.8" height="29.7"/>
		<rect x="157.6" y="270" width="174.8" height="29.7"/>
		<rect x="157.6" y="321.2" width="87.3" height="29.7"/>
	</g>
</g>
<g>
</g>
<g>
</g>
<g>
</g>
<g>
</g>
<g>
</g>
<g>
</g>
<g>
</g>
<g>
</g>
<g>
</g>
<g>
</g>
<g>
</g>
<g>
</g>
<g>
</g>
<g>
</g>
<g>
</g>
</svg>
