<?xml version="1.0" encoding="iso-8859-1"?>
<!-- Generator: Adobe Illustrator 19.0.0, SVG Export Plug-In . SVG Version: 6.00 Build 0)  -->
<svg version="1.1" id="Capa_1" xmlns="http://www.w3.org/2000/svg" xmlns:xlink="http://www.w3.org/1999/xlink" x="0px" y="0px"
	 viewBox="0 0 489.496 489.496" style="enable-background:new 0 0 489.496 489.496;" xml:space="preserve">
<g>
	<g>
		<path d="M13.391,209.1c-8.6-23.2-14.6-47.1-12.6-71.7c1.3-15.3,7.3-28.5,18.6-39.8c12-12,23.9-23.9,35.9-35.9
			c15.9-15.3,35.9-15.3,51.1,0c10,9.3,19.3,19.3,29.2,29.2c9.3,9.3,18.6,18.6,28.5,28.5c16.6,16.6,16.6,35.9,0,52.5
			c-12,12-23.2,23.9-35.9,35.2c-3.3,3.3-3.3,5.3-2,9.3c8,19.3,19.3,35.9,31.9,51.8c25.9,31.9,55.1,59.8,89.6,81.7
			c7.3,4.6,15.9,8,23.2,12.6c4,2,6.6,1.3,10-2c12-12,23.9-23.9,35.9-35.9c15.9-15.9,35.9-15.9,51.1,0c19.3,19.3,38.5,38.5,57.8,57.8
			c15.9,15.9,15.9,35.9,0,52.5c-10.6,11.3-22.6,21.2-32.5,33.2c-15.3,16.6-33.9,22.6-55.8,21.2c-30.5-2-59.1-12.6-87-25.9
			c-61.7-29.9-114.9-71.7-159.3-124.8C58.591,299.4,31.291,257.6,13.391,209.1z"/>
		<path d="M402.991,147.2v25.1v30.5c0,16.9-13.7,30.5-30.5,30.5l0,0c-16.9,0-30.5-13.7-30.5-30.5v-30.5v-25.1h-25.2h-30.5
			c-16.9,0-30.5-13.7-30.5-30.5l0,0c0-16.9,13.7-30.5,30.5-30.5h30.5h25.1V30.5c0-16.9,13.7-30.5,30.5-30.5l0,0
			c16.9,0,30.5,13.7,30.5,30.5v55.7h55.7c16.9,0,30.5,13.7,30.5,30.5l0,0c0,16.9-13.7,30.5-30.5,30.5H402.991z"/>
	</g>
</g>
<g>
</g>
<g>
</g>
<g>
</g>
<g>
</g>
<g>
</g>
<g>
</g>
<g>
</g>
<g>
</g>
<g>
</g>
<g>
</g>
<g>
</g>
<g>
</g>
<g>
</g>
<g>
</g>
<g>
</g>
</svg>
