<?xml version="1.0" encoding="iso-8859-1"?>
<!-- Generator: Adobe Illustrator 19.0.0, SVG Export Plug-In . SVG Version: 6.00 Build 0)  -->
<svg version="1.1" id="Capa_1" xmlns="http://www.w3.org/2000/svg" xmlns:xlink="http://www.w3.org/1999/xlink" x="0px" y="0px"
	 viewBox="0 0 488.705 488.705" style="enable-background:new 0 0 488.705 488.705;" xml:space="preserve">
<g>
	<g>
		<path d="M163.005,278.55h-83c-43.5,0-80.5,35.6-80,79c0.2,18.2,6.7,34.9,17.3,48.1l-7.1,11.5c-5.2,8.5-3.9,19.5,3.1,26.5
			c8.4,8.4,22.1,8.4,30.5,0l12.2-12.2c9.4,2.8,19.5,3.8,30,2.8c33.7-3.3,61.8-28.8,68.6-62c2.4-11.7,2-23-0.5-33.6h15.2
			c9,0,17.8-3,25-8.5l294.4-227.2c-4.3-8.4-10.3-15.4-17.3-20.8c-21.9-16.5-52.5-14.6-73.4,3l-133.1,112.6l-70.6-54.5
			c-7.1-5.5-15.9-8.5-25-8.5h-15.2c2.5-10.5,2.9-21.8,0.5-33.6c-6.8-33.2-34.9-58.7-68.6-62c-46.4-4.6-85.5,31.5-86,76.8
			c-0.5,43.5,36.5,79,80,79h83c4.1,0,8.1,1.5,11.3,4.1l44.5,37.7l-44.5,37.7C171.105,277.15,167.105,278.55,163.005,278.55z
			 M78.105,392.05c-19.6,0-35.4-15.9-35.4-35.4c0-19.6,15.9-35.4,35.4-35.4c19.6,0,35.4,15.9,35.4,35.4
			C113.505,376.25,97.605,392.05,78.105,392.05z M78.105,152.35c-19.6,0-35.4-15.9-35.4-35.4s15.8-35.5,35.4-35.5
			s35.4,15.9,35.4,35.4S97.605,152.35,78.105,152.35z M339.205,255.95l149.4,114.5c-3.7,7.4-8.8,13.7-14.7,18.7
			c-21.8,18.5-54.2,17.5-76.1-0.9l-110.1-92.6L339.205,255.95z"/>
	</g>
</g>
<g>
</g>
<g>
</g>
<g>
</g>
<g>
</g>
<g>
</g>
<g>
</g>
<g>
</g>
<g>
</g>
<g>
</g>
<g>
</g>
<g>
</g>
<g>
</g>
<g>
</g>
<g>
</g>
<g>
</g>
</svg>
