<?xml version="1.0" encoding="iso-8859-1"?>
<!-- Generator: Adobe Illustrator 19.0.0, SVG Export Plug-In . SVG Version: 6.00 Build 0)  -->
<svg version="1.1" id="Capa_1" xmlns="http://www.w3.org/2000/svg" xmlns:xlink="http://www.w3.org/1999/xlink" x="0px" y="0px"
	 viewBox="0 0 487.43 487.43" style="enable-background:new 0 0 487.43 487.43;" xml:space="preserve">
<g>
	<g>
		<path d="M157.978,277.807c-0.3,3.8,1.1,7.6,3.8,10.3l16.7,16.7c4.4,4.4,11.5,4.4,15.9,0l110.5-110.5c4.4-4.4,4.4-11.5,0-15.9
			l-16.8-16.7c-2.7-2.7-6.5-4.1-10.3-3.8c-11.4,0.9-23-2.9-31.7-11.6c-8.7-8.7-12.5-20.4-11.6-31.7c0.3-3.8-1.1-7.6-3.8-10.3l-76-76
			c-34.8-34.8-91.9-37.4-127.3-3.3c-36.1,34.8-36.5,92.3-1.2,127.6l78.1,78.1c2.7,2.7,6.5,4.1,10.3,3.8c11.4-0.9,23,2.9,31.7,11.6
			C155.078,254.807,158.878,266.507,157.978,277.807z M94.378,72.707c-5.8-5.8-5.8-15.2,0-21s15.2-5.8,21,0l71.9,71.9
			c5.8,5.8,5.8,15.2,0,21s-15.2,5.8-21,0L94.378,72.707z M51.578,115.407c-5.8-5.8-5.8-15.2,0-21s15.2-5.8,21,0l71.9,71.9
			c5.8,5.8,5.8,15.2,0,21s-15.2,5.8-21,0L51.578,115.407z"/>
		<path d="M465.378,483.707l19.1-19.1c3.1-3.1,3.8-7.7,1.9-11.6l-52.6-105.1c-1.7-3.4-5.2-5.5-9-5.5h-44.6l-84.4-84.4
			c-2.1-2.1-5.5-2.1-7.6,0l-29.4,29.4c-2.1,2.1-2.1,5.5,0,7.6l84.4,84.4v44.6c0,3.8,2.1,7.3,5.5,9l105.2,52.6
			C457.678,487.507,462.278,486.807,465.378,483.707z"/>
	</g>
</g>
<g>
</g>
<g>
</g>
<g>
</g>
<g>
</g>
<g>
</g>
<g>
</g>
<g>
</g>
<g>
</g>
<g>
</g>
<g>
</g>
<g>
</g>
<g>
</g>
<g>
</g>
<g>
</g>
<g>
</g>
</svg>
