<?xml version="1.0" encoding="iso-8859-1"?>
<!-- Generator: Adobe Illustrator 19.0.0, SVG Export Plug-In . SVG Version: 6.00 Build 0)  -->
<svg version="1.1" id="Capa_1" xmlns="http://www.w3.org/2000/svg" xmlns:xlink="http://www.w3.org/1999/xlink" x="0px" y="0px"
	 viewBox="0 0 490.5 490.5" style="enable-background:new 0 0 490.5 490.5;" xml:space="preserve">
<g>
	<g>
		<path id="XMLID_38_" d="M490.5,222c0-8.5-6.1-15.7-14.6-17.2l-45.6-7.7c-4.4-17.2-11.3-33.7-20.5-49.3l26.8-37.6
			c5-7,4.2-16.5-1.9-22.6l-16.2-16.2l-16.2-16.1c-6.1-5.5-15.6-6.3-22.5-1.4l-37.6,26.9c-15.6-9.2-32.1-16-49.3-20.4l-7.8-45.6
			c-1.5-8.5-8.8-14.6-17.2-14.6h-22.8h-22.8c-8.5,0-15.7,6.1-17.2,14.6l-7.7,45.7c-17.5,4.4-34.4,11.4-50.3,21.2l-37.4-26.5
			c-7-5-16.5-4.2-22.6,1.9l-16,16L54.9,89.3c-6,6-6.8,15.6-1.9,22.6l27,38c-9.2,15.6-15.7,32.4-20.1,49.3l-45.3,7.2
			C6.1,207.9,0,215.2,0,223.6v22.8v22.8c0,8.5,6.1,15.7,14.6,17.2l45.9,7.7c4.5,17.1,11.4,33.5,20.7,49l-26.5,37.4
			c-5,7-4.2,16.5,1.9,22.6l16.2,16.2L89,435.5c6,6,15.6,6.8,22.6,1.9l38-27c15.6,9.2,32.4,15.7,49.3,20.1l7.6,45.2
			c1.5,8.5,8.8,14.6,17.2,14.6h22.8h22.8c8.5,0,15.7-6.1,17.2-14.6l7.7-45.9c16.6-4.4,33-11.1,48-20l37.6,26.8
			c7,5,16.5,4.2,22.6-1.9l16.2-16.2l16.2-16.2c6-6,6.8-15.6,1.9-22.6l-26.9-37.6c9.2-15.6,16-32.1,20.4-49.3l45.6-7.8
			c8.5-1.5,14.6-8.8,14.6-17.2V245L490.5,222z M321.9,319.1c-41.5,41.6-108.9,41.6-150.4,0.1c-41.6-41.5-41.6-108.9-0.1-150.4
			s108.9-41.6,150.4-0.1C363.4,210.2,363.5,277.5,321.9,319.1z"/>
		<circle id="XMLID_18_" cx="246.7" cy="244" r="62.8"/>
	</g>
</g>
<g>
</g>
<g>
</g>
<g>
</g>
<g>
</g>
<g>
</g>
<g>
</g>
<g>
</g>
<g>
</g>
<g>
</g>
<g>
</g>
<g>
</g>
<g>
</g>
<g>
</g>
<g>
</g>
<g>
</g>
</svg>
