<svg xmlns="http://www.w3.org/2000/svg" xmlns:xlink="http://www.w3.org/1999/xlink" id="Capa_1" x="0" y="0" enable-background="new 0 0 489.801 489.801" version="1.1" viewBox="0 0 489.801 489.801" xml:space="preserve"><g><path d="M441.7,196.601c-20.9,0-38.7,13.4-45.4,32h-70.1c-2.1-10.7-6.4-20.7-12.2-29.5l49.6-49.6c17.9,8.4,39.9,5.3,54.7-9.5 c18.9-18.9,18.9-49.5,0-68.3c-18.9-18.9-49.5-18.9-68.3,0c-14.8,14.8-17.9,36.8-9.5,54.7l-49.6,49.6c-8.8-5.9-18.8-10.1-29.5-12.2 v-70.1c18.6-6.7,32-24.5,32-45.4c0-26.7-21.6-48.3-48.3-48.3s-48.3,21.6-48.3,48.3c0,20.9,13.4,38.7,32,45.4v70.1 c-10.7,2.1-20.7,6.4-29.5,12.2l-49.6-49.6c8.4-17.9,5.3-39.9-9.5-54.7c-18.9-18.9-49.5-18.9-68.3,0c-18.9,18.9-18.9,49.5,0,68.3 c14.8,14.8,36.8,17.9,54.7,9.5l49.6,49.6c-5.9,8.8-10.1,18.8-12.2,29.5H93.9c-6.7-18.6-24.5-32-45.4-32 c-26.9,0-48.5,21.6-48.5,48.3s21.6,48.3,48.3,48.3c20.9,0,38.7-13.4,45.4-32h70.1c2.1,10.7,6.4,20.7,12.2,29.5l-49.6,49.6 c-17.9-8.4-39.9-5.3-54.7,9.5c-18.9,18.9-18.9,49.5,0,68.3c18.9,18.9,49.5,18.9,68.3,0c14.8-14.8,17.9-36.8,9.5-54.7l49.6-49.6 c8.8,5.9,18.8,10.1,29.5,12.2v70.1c-18.6,6.7-32,24.5-32,45.4c0,26.7,21.6,48.3,48.3,48.3s48.3-21.6,48.3-48.3 c0-20.9-13.4-38.7-32-45.4v-70.1c10.7-2.1,20.7-6.4,29.5-12.2l49.6,49.6c-8.4,17.9-5.3,39.9,9.5,54.7c18.9,18.9,49.5,18.9,68.3,0 c18.9-18.9,18.9-49.5,0-68.3c-14.8-14.8-36.8-17.9-54.7-9.5l-49.6-49.6c5.9-8.8,10.1-18.8,12.2-29.5h70.1c6.7,18.6,24.5,32,45.4,32 c26.7,0,48.3-21.6,48.3-48.3C490,218.201,468.4,196.601,441.7,196.601z M245,292.001c-26,0-47.1-21.1-47.1-47.1 s21.1-47.1,47.1-47.1s47.1,21.1,47.1,47.1S271,292.001,245,292.001z"/></g></svg>