<svg xmlns="http://www.w3.org/2000/svg" xmlns:xlink="http://www.w3.org/1999/xlink" id="Capa_1" x="0" y="0" enable-background="new 0 0 490.1 490.1" version="1.1" viewBox="0 0 490.1 490.1" xml:space="preserve"><g><path d="M245,30.25c-135.3,0-245,96.2-245,214.8c0,51.1,20.4,98.1,54.5,135c-6.3,17-17.8,36.2-38.7,50c-5.2,3.4-3.6,11.4,2.6,12.3 c21.7,3,59.1,3.7,93.6-17c38.3,21.8,84,34.5,133.1,34.5c135.3,0,245-96.2,245-214.8S380.3,30.25,245,30.25z M335.7,267.45l-84,84 c-1.8,1.8-4.2,2.8-6.7,2.8s-4.9-1-6.7-2.8l-84.1-84.1c-11.7-11.7-18.1-27.2-18.1-43.7s6.4-32,18.1-43.7 c11.7-11.6,27.1-18.1,43.6-18.1s32,6.4,43.7,18.1l3.5,3.5l3.4-3.4c11.7-11.7,27.2-18.1,43.7-18.1s32,6.4,43.7,18.1 c11.7,11.7,18.1,27.2,18.1,43.7C353.8,240.25,347.4,255.75,335.7,267.45z"/></g></svg>