<svg xmlns="http://www.w3.org/2000/svg" xmlns:xlink="http://www.w3.org/1999/xlink" id="Capa_1" x="0" y="0" enable-background="new 0 0 489.4 489.4" version="1.1" viewBox="0 0 489.4 489.4" xml:space="preserve"><g><g><path d="M472.7,281.05c-6.4-4.2-11.5-9.8-15.3-16.9c20.7-25.6,32-56.5,32-88.1c0-83.3-76.3-151-170.1-151 c-76.2,0-140.9,44.7-162.4,106.2c5.6-0.4,11.2-0.7,16.9-0.7c5.1,0,10.1,0.2,15,0.6c20.7-44.8,71.4-76.5,130.6-76.5 c77.5,0,140.6,54.5,140.6,121.5c0,27.7-10.6,53.9-30.6,75.6l-6.1,6.6l3.1,8.5c2.7,7.2,6.2,13.9,10.5,19.8 c-9.4-1.3-17.9-4.3-25.5-8.8l-7.4-4.4l-7.5,4.3c-6.9,3.9-14.1,7.2-21.5,10c1.2,8.1,1.9,16.3,1.9,24.7c0,2-0.1,3.9-0.2,5.8 c9.3-2.9,18.4-6.6,27.1-11c13.5,6.5,28.5,9.8,44.9,9.8c5.5,0,11.1-0.4,16.5-1.1c7.9-1.1,14.1-6.8,15.9-14.6 C482.7,293.35,479.5,285.45,472.7,281.05z"/><g><path d="M173.6,160.05C77.7,160.05,0,228.15,0,312.25c0,36.2,14.5,69.5,38.6,95.6c-4.5,12-12.6,25.7-27.4,35.4 c-3.7,2.4-2.6,8.1,1.8,8.7c15.4,2.1,41.9,2.6,66.3-12c27.2,15.4,59.5,24.4,94.3,24.4c95.9,0,173.6-68.1,173.6-152.2 S269.5,160.05,173.6,160.05z M111.3,330.95c-10.3,0-18.7-8.4-18.7-18.7c0-10.3,8.4-18.7,18.7-18.7s18.7,8.4,18.7,18.7 C130,322.55,121.6,330.95,111.3,330.95z M173.6,330.95c-10.3,0-18.7-8.4-18.7-18.7c0-10.3,8.4-18.7,18.7-18.7s18.7,8.4,18.7,18.7 C192.3,322.55,184,330.95,173.6,330.95z M236,330.95c-10.3,0-18.7-8.4-18.7-18.7c0-10.3,8.4-18.7,18.7-18.7s18.7,8.4,18.7,18.7 S246.3,330.95,236,330.95z"/></g></g></g></svg>