<?xml version="1.0" encoding="iso-8859-1"?>
<!-- Generator: Adobe Illustrator 19.0.0, SVG Export Plug-In . SVG Version: 6.00 Build 0)  -->
<svg version="1.1" id="Capa_1" xmlns="http://www.w3.org/2000/svg" xmlns:xlink="http://www.w3.org/1999/xlink" x="0px" y="0px"
	 viewBox="0 0 490.1 490.1" style="enable-background:new 0 0 490.1 490.1;" xml:space="preserve">
<g>
	<path d="M245,30.25c-135.3,0-245,96.2-245,214.8c0,51.1,20.4,98.1,54.5,135c-6.3,17-17.8,36.2-38.7,50c-5.2,3.4-3.6,11.4,2.6,12.3
		c21.7,3,59.1,3.7,93.6-17c38.3,21.8,84,34.5,133.1,34.5c135.3,0,245-96.2,245-214.8S380.3,30.25,245,30.25z M241.5,128.15
		c15,0,27.2,12.2,27.2,27.2s-12.2,27.2-27.2,27.2c-15,0-27.2-12.2-27.2-27.2C214.3,140.35,226.5,128.15,241.5,128.15z M282.5,349.85
		h-13.8h-47.5h-13.8v-36.4h13.8v-73.9h-13.6v-36.5h13.6H262h6.8v110.3h13.8v36.5H282.5z"/>
</g>
<g>
</g>
<g>
</g>
<g>
</g>
<g>
</g>
<g>
</g>
<g>
</g>
<g>
</g>
<g>
</g>
<g>
</g>
<g>
</g>
<g>
</g>
<g>
</g>
<g>
</g>
<g>
</g>
<g>
</g>
</svg>
