<?xml version="1.0" encoding="iso-8859-1"?>
<!-- Generator: Adobe Illustrator 19.0.0, SVG Export Plug-In . SVG Version: 6.00 Build 0)  -->
<svg version="1.1" id="Capa_1" xmlns="http://www.w3.org/2000/svg" xmlns:xlink="http://www.w3.org/1999/xlink" x="0px" y="0px"
	 viewBox="0 0 490 490" style="enable-background:new 0 0 490 490;" xml:space="preserve">
<g>
	<g>
		<g>
			<path d="M245,31.95c-135.1,0-245,95.6-245,213.1c0,51.1,20.8,98,55.3,134.7c-7.6,15.3-19.3,30.9-37.5,42.9
				c-5.8,3.8-4,12.7,2.9,13.6c21.5,3,57,3.9,91.5-12.3c38.3,21.6,83.9,34.1,132.8,34.1c135.1,0,245-95.6,245-213.1
				S380.1,31.95,245,31.95z M245,411.05c-109.1,0-198-74.5-198-166c0-91.6,88.8-166,198-166s198,74.5,198,166
				C443,336.65,354.1,411.05,245,411.05z"/>
		</g>
		<path d="M362.1,289.15c0,6.8-7.4,11.1-13.3,7.7l-36.7-21.2v6c0,18.1-14.7,32.8-32.8,32.8H168.6c-18.1,0-32.8-14.7-32.8-32.8v-73.1
			c0-18.1,14.7-32.8,32.8-32.8h110.8c18.1,0,32.8,14.7,32.8,32.8v6l36.7-21.2c5.9-3.4,13.3,0.9,13.3,7.7v88.1H362.1z"/>
	</g>
</g>
<g>
</g>
<g>
</g>
<g>
</g>
<g>
</g>
<g>
</g>
<g>
</g>
<g>
</g>
<g>
</g>
<g>
</g>
<g>
</g>
<g>
</g>
<g>
</g>
<g>
</g>
<g>
</g>
<g>
</g>
</svg>
