<svg xmlns="http://www.w3.org/2000/svg" xmlns:xlink="http://www.w3.org/1999/xlink" id="Capa_1" x="0" y="0" enable-background="new 0 0 490.1 490.1" version="1.1" viewBox="0 0 490.1 490.1" xml:space="preserve"><g><path d="M422.65,402.4V46.6v-7.1c0-16.4-9.6-30.4-23.3-36.4c-4.6-2-9.6-3.1-14.9-3.1h-130h-9.4h-9.4h-130c-5.3,0-10.3,1.1-14.9,3.1 c-13.7,6-23.3,20-23.3,36.4v7.1v355.8v48.2c0,21.8,17.1,39.5,38.2,39.5h67.1l0,0h62.8h9.5h9.5h62.8l0,0h67.1 c21.1,0,38.2-17.7,38.2-39.5V402.4z M262.95,470.1h-17.9h-17.9c-5.3,0-9.7-4.5-9.7-10s4.3-10,9.7-10h17.9h17.9 c5.3,0,9.7,4.5,9.7,10C272.65,465.7,268.25,470.1,262.95,470.1z M369.15,425.1h-124.1h-124.1V64.9h124.1h124.1V425.1z"/></g></svg>