<?xml version="1.0" encoding="iso-8859-1"?>
<!-- Generator: Adobe Illustrator 19.0.0, SVG Export Plug-In . SVG Version: 6.00 Build 0)  -->
<svg version="1.1" id="Capa_1" xmlns="http://www.w3.org/2000/svg" xmlns:xlink="http://www.w3.org/1999/xlink" x="0px" y="0px"
	 viewBox="0 0 490.573 490.573" style="enable-background:new 0 0 490.573 490.573;" xml:space="preserve">
<g>
	<g>
		<path d="M130.791,209.4c-3.2-7.5-6.5-15.1-9.7-22.5l-12.4-28.8c-12.1-27-2.4-57.3,23-72l1.3-0.7c8-4.2,17.1-6.4,26.1-6.4
			c19.4,0,37.3,9.9,47.9,26.6c8,12.3,15.4,24.4,23.2,37.2l5.2,8.5l0.1,0.1c6.9-14,10.9-29.7,10.9-46.4c0-58-47-105-105-105
			s-105,47-105,105C36.391,159.4,77.791,204.1,130.791,209.4z"/>
		<path d="M452.591,405.5c3.7,8.3,0.7,17.9-6.4,23.1l-85.8,56.1c-14.2,9-33.1,7.7-45.7-4.2c-38.3-36.4-88.7-52.3-88.7-52.3l0,0
			c-12.8-4-24.1-9.2-34.9-18.9c-7.2-6.7-18.3-13.8-25.6-19.9c-19.4-15.9-40.3-30-63-40.3c-10.1-4.4-12-11.2-7-21.2
			c2.5-5,9.1-10.9,14.6-13c12.4-4.6,24.7-2.6,36.2,0.6c7.1,1.4,36.7,20.4,50.5,27.2c11.9,5.9,15-5,15.1-18.2
			c0-6.6-1.9-12.7-3.9-18.9c-22-53.8-45.3-107.1-68.6-161c-5.3-11.8-1.5-23.2,9.1-29.4c10.5-5.5,23.3-2.1,30.1,8.5
			c9.6,14.9,18.6,29.7,28.2,45.2c8.4,14.1,17.5,27.6,25.9,41.7l10.7,17c0,0,76-20.3,156.7,8.1c4.4,1.8,8.1,4.8,9.5,9.6
			c7.3,17.9,26.4,67.4,28.1,113.8c2,12.1,5.5,22.4,7.4,29.2L452.591,405.5z"/>
	</g>
</g>
<g>
</g>
<g>
</g>
<g>
</g>
<g>
</g>
<g>
</g>
<g>
</g>
<g>
</g>
<g>
</g>
<g>
</g>
<g>
</g>
<g>
</g>
<g>
</g>
<g>
</g>
<g>
</g>
<g>
</g>
</svg>
