<?xml version="1.0" encoding="iso-8859-1"?>
<!-- Generator: Adobe Illustrator 19.0.0, SVG Export Plug-In . SVG Version: 6.00 Build 0)  -->
<svg version="1.1" id="Capa_1" xmlns="http://www.w3.org/2000/svg" xmlns:xlink="http://www.w3.org/1999/xlink" x="0px" y="0px"
	 viewBox="0 0 489.851 489.851" style="enable-background:new 0 0 489.851 489.851;" xml:space="preserve">
<g>
	<g>
		<path d="M395.249,30.951c18,8.2,34.8,18.4,47.6,33.3c7.9,9.4,12,20.2,12,33c0,13.5,0,27,0,40.5c-0.4,17.6-11.6,28.8-28.8,28.8
			c-10.9,0.4-21.7,0-33,0c-10.5,0-21,0-32.2,0c-18.7,0-29.6-10.9-29.6-29.6c0-13.5-0.4-26.6,0.4-40.1c0-3.7-1.1-4.9-4.1-6.4
			c-15.4-6.4-31.1-9.4-47.2-11.2c-32.6-3.4-64.8-2.6-96.6,4.5c-6.7,1.5-13.5,4.5-20.2,6c-3.4,1.1-4.5,3-4.5,6.7c0,13.5,0,27,0,40.5
			c0,18-11.2,29.2-28.8,28.8c-21.7,0-43.5,0-65.2,0c-18,0-29.2-11.2-29.6-29.6c-0.4-12.4,0.7-24.7-0.4-37.1
			c-0.7-18,6.4-31.8,19.5-43.5c18.4-16.1,40.5-26.2,63.7-34.5c51.7-18,105.3-24.3,160.3-19.5
			C318.849,5.551,357.849,13.751,395.249,30.951z"/>
		<circle cx="164.049" cy="382.751" r="26.4"/>
		<circle cx="164.049" cy="221.251" r="26.4"/>
		<circle cx="164.049" cy="301.951" r="26.4"/>
		<circle cx="244.849" cy="382.751" r="26.4"/>
		<circle cx="244.849" cy="221.251" r="26.4"/>
		<circle cx="244.849" cy="302.051" r="26.4"/>
		<circle cx="244.849" cy="463.451" r="26.4"/>
		<circle cx="325.649" cy="221.251" r="26.4"/>
		<circle cx="325.649" cy="302.051" r="26.4"/>
		<circle cx="325.649" cy="382.751" r="26.4"/>
	</g>
</g>
<g>
</g>
<g>
</g>
<g>
</g>
<g>
</g>
<g>
</g>
<g>
</g>
<g>
</g>
<g>
</g>
<g>
</g>
<g>
</g>
<g>
</g>
<g>
</g>
<g>
</g>
<g>
</g>
<g>
</g>
</svg>
