<?xml version="1.0" encoding="iso-8859-1"?>
<!-- Generator: Adobe Illustrator 19.0.0, SVG Export Plug-In . SVG Version: 6.00 Build 0)  -->
<svg version="1.1" id="Capa_1" xmlns="http://www.w3.org/2000/svg" xmlns:xlink="http://www.w3.org/1999/xlink" x="0px" y="0px"
	 viewBox="0 0 489.801 489.801" style="enable-background:new 0 0 489.801 489.801;" xml:space="preserve">
<g>
	<g>
		<g>
			<path d="M397.3,85.25h-79c-11.5-9-24.6-15.9-39-20.2l29.8-29.8c5.2-5.2,5.2-13.6,0-18.8s-13.6-5.2-18.8,0l-41.4,41.5
				c-0.7,0.7-1.3,1.4-1.7,2.2c-0.7,0-1.4,0-2.2,0c-0.7,0-1.4,0-2.1,0c-0.5-0.8-1.1-1.5-1.7-2.2l-41.4-41.4c-5.2-5.2-13.6-5.2-18.8,0
				s-5.2,13.6,0,18.8l29.8,29.8c-14.3,4.3-27.5,11.2-39,20.2h-79C41.7,85.25,0,126.95,0,177.95v181.8c0,51,41.7,92.7,92.7,92.7h1.2
				v9.2c0,8.6,7,15.6,15.6,15.6h9.5c8.6,0,15.6-7,15.6-15.6v-9.2h220.6v5.3c0,8.6,7,15.6,15.6,15.6h9.5c8.6,0,15.6-7,15.6-15.6v-5.3
				h1.2c51,0,92.7-41.7,92.7-92.7v-181.8C490,126.95,448.3,85.25,397.3,85.25z M115.7,400.35c-32.4,0-59-26.5-59-59v-143.6
				c0-32.4,26.5-59,59-59h200.1c32.4,0,59,26.5,59,59v143.6c0,32.4-26.5,59-59,59L115.7,400.35L115.7,400.35z M431.2,328.15
				c-8.2,0-14.8-6.6-14.8-14.8s6.6-14.8,14.8-14.8c8.2,0,14.8,6.6,14.8,14.8S439.3,328.15,431.2,328.15z M431.2,283.85
				c-8.2,0-14.8-6.6-14.8-14.8c0-8.2,6.6-14.8,14.8-14.8c8.2,0,14.8,6.6,14.8,14.8S439.3,283.85,431.2,283.85z M431.2,239.55
				c-8.2,0-14.8-6.6-14.8-14.8s6.6-14.8,14.8-14.8c8.2,0,14.8,6.6,14.8,14.8S439.3,239.55,431.2,239.55z"/>
		</g>
		<path d="M292,288.05l-70.5,70.5c-1.5,1.5-3.5,2.3-5.6,2.3s-4.1-0.8-5.6-2.3l-70.7-70.6c-9.8-9.8-15.2-22.8-15.2-36.7
			c0-13.9,5.4-26.9,15.2-36.7s22.8-15.2,36.6-15.2c13.9,0,26.9,5.4,36.7,15.2l2.9,2.9l2.8-2.8c9.8-9.8,22.8-15.2,36.7-15.2
			c13.8,0,26.9,5.4,36.7,15.2c9.8,9.8,15.2,22.8,15.2,36.7C307.2,265.15,301.8,278.25,292,288.05z"/>
	</g>
</g>
<g>
</g>
<g>
</g>
<g>
</g>
<g>
</g>
<g>
</g>
<g>
</g>
<g>
</g>
<g>
</g>
<g>
</g>
<g>
</g>
<g>
</g>
<g>
</g>
<g>
</g>
<g>
</g>
<g>
</g>
</svg>
