<svg xmlns="http://www.w3.org/2000/svg" xmlns:xlink="http://www.w3.org/1999/xlink" id="Capa_1" x="0" y="0" enable-background="new 0 0 489.2 489.2" version="1.1" viewBox="0 0 489.2 489.2" xml:space="preserve"><g><g><path d="M4.3,320.65v43c0,12.7,10.3,22.5,22.5,22.5H59c7.3,25.5,30.4,43.7,58.3,43.7s51-18.8,58.3-43.7h73.5h73.1 c7.3,25.5,30.4,43.7,58.3,43.7s51-18.8,58.3-43.7h27.9c12.8,0,22.5-10.3,22.5-22.5v-28.5c0-11.5-9.1-21.3-20-22.5v-57.7 c0-21.9-17.6-39.5-39.5-39.5l-27.2-4.2l-46.9-70.5c-0.6-0.6-1.2-1.8-1.8-2.4c-7.3-9.7-18.8-16.4-32.2-16.4h-55.5 c-7.2,0-13,5.8-13,13v105.1c0,32.2-26.1,58.3-58.3,58.3H21.3v0.4C11.5,301.15,4.3,310.25,4.3,320.65z M350.1,369.05 c0-16.4,14-30.4,30.4-30.4c17,0,30.4,14,30.4,30.4s-14,30.4-30.4,30.4C363.4,399.45,350.1,385.45,350.1,369.05z M86.8,369.05 c0-16.4,14-30.4,30.4-30.4c17,0,30.4,14,30.4,30.4s-13.4,30.4-30.4,30.4S86.8,385.45,86.8,369.05z"/><path d="M33.2,59.35h154.2c18.3,0,33.2,15.5,33.2,34.6v136c0,19.1-14.9,34.7-33.2,34.7H33.2c-18.3,0-33.2-15.5-33.2-34.7v-13.7 v-6.1V93.95C0.1,74.85,14.9,59.35,33.2,59.35z"/></g></g></svg>