<?xml version="1.0" encoding="iso-8859-1"?>
<!-- Generator: Adobe Illustrator 19.0.0, SVG Export Plug-In . SVG Version: 6.00 Build 0)  -->
<svg version="1.1" id="Capa_1" xmlns="http://www.w3.org/2000/svg" xmlns:xlink="http://www.w3.org/1999/xlink" x="0px" y="0px"
	 viewBox="0 0 511.999 511.999" style="enable-background:new 0 0 511.999 511.999;" xml:space="preserve">
<g>
	<g>
		<path d="M481.288,30.64c-40.779-40.778-107.744-40.782-148.526,0L179.235,184.183c-0.002,0.002-0.003,0.003-0.005,0.005
			L30.711,332.708c-40.948,40.948-40.948,107.577,0,148.525c40.948,40.947,107.576,40.949,148.525,0l148.515-148.516
			c0.003-0.003,0.007-0.007,0.01-0.01l153.526-153.541C522.236,138.217,522.236,71.589,481.288,30.64z M158.018,460.015
			c-29.25,29.248-76.841,29.248-106.09,0c-29.249-29.249-29.249-76.84,0-106.09L200.454,205.4
			c33.47-33.47,89.297-28.049,115.629,11.674l-21.955,21.957c-13.431-28.055-50.603-34.267-72.455-12.413L73.147,375.143
			c-17.549,17.549-17.549,46.104,0,63.654c17.549,17.549,46.104,17.55,63.654,0l81.386-81.387
			c11.241,4.002,23.458,6.176,36.391,6.044L158.018,460.015z M264.107,269.054c-5.849,5.85-15.367,5.849-21.218,0
			c-5.864-5.864-5.864-15.353,0-21.218c5.85-5.85,15.368-5.849,21.218,0C269.97,253.699,269.971,263.189,264.107,269.054z
			 M190.596,342.565l-75.014,75.014c-5.85,5.85-15.368,5.85-21.218,0c-5.849-5.85-5.85-15.368,0-21.218l75.031-75.031
			C175.369,329.302,182.348,336.371,190.596,342.565z M460.07,157.949L306.545,311.488c-0.001,0.001-0.002,0.002-0.003,0.002
			l-0.005,0.005c-33.497,33.492-89.339,27.979-115.626-11.683l21.956-21.956c13.427,28.05,50.593,34.27,72.451,12.42
			c0.002-0.002,0.004-0.003,0.006-0.005s0.003-0.003,0.005-0.005L438.853,136.73c17.549-17.549,17.549-46.104,0-63.653
			c-17.549-17.549-46.105-17.549-63.655,0.001l-86.387,86.401c-11.583-4.124-23.813-6.171-36.396-6.044L353.98,51.858
			c29.05-29.05,77.035-29.053,106.09,0C489.319,81.108,489.319,128.699,460.07,157.949z M316.401,174.323l80.016-80.029
			c5.85-5.85,15.368-5.849,21.218,0c5.85,5.85,5.85,15.368,0,21.219l-80.035,80.042C331.666,187.638,324.7,180.557,316.401,174.323z
			"/>
	</g>
</g>
<g>
</g>
<g>
</g>
<g>
</g>
<g>
</g>
<g>
</g>
<g>
</g>
<g>
</g>
<g>
</g>
<g>
</g>
<g>
</g>
<g>
</g>
<g>
</g>
<g>
</g>
<g>
</g>
<g>
</g>
</svg>
