<svg xmlns="http://www.w3.org/2000/svg" xmlns:xlink="http://www.w3.org/1999/xlink" id="Capa_1" x="0" y="0" enable-background="new 0 0 489.9 489.9" version="1.1" viewBox="0 0 489.9 489.9" xml:space="preserve"><g><path d="M411.55,166.6c0-92-74.6-166.6-166.6-166.6S78.35,74.6,78.35,166.6c0,81.5,58.6,149.3,135.9,163.7l-6.8,121.5 c-1.2,20.7,15.3,38.1,36,38.1h3l0,0c20.7,0,37.2-17.4,36-38.1l-6.8-121.5C353.05,315.9,411.55,248.1,411.55,166.6z M244.95,276 c-60.4,0-109.4-49-109.4-109.4s49-109.4,109.4-109.4s109.4,49,109.4,109.4C354.35,227.1,305.35,276,244.95,276z"/></g></svg>