<svg xmlns="http://www.w3.org/2000/svg" xmlns:xlink="http://www.w3.org/1999/xlink" id="Capa_1" x="0" y="0" enable-background="new 0 0 490.574 490.574" version="1.1" viewBox="0 0 490.574 490.574" xml:space="preserve"><g><path d="M243.863,323.2c-12.3-29.5,1.8-63.5,31.3-75.8s63.5,1.8,75.8,31.3c12.3,29.5-1.8,63.5-31.3,75.8 C290.163,366.8,256.163,352.7,243.863,323.2z M478.863,342.8l-27.2-11.2c4-19.9,4.1-40.8,0-61.4l27.1-11.3c6.6-2.7,9.8-10.3,7-17 l-13.5-32.6c-2.7-6.6-10.3-9.8-17-7l-27.2,11.3c-11.7-17.5-26.6-32.2-43.5-43.4l11.2-27.2c2.7-6.6-0.4-14.2-7-16.9l-32.5-13.6 c-6.6-2.7-14.2,0.4-16.9,7l-11.2,27.2c-12-2.4-24.4-3.4-36.8-2.9c-2.5,18.6-17.1,33.3-35.5,36c-0.2,0.4-0.3,0.7-0.5,1.1 c5.2,7.1,8.1,15.7,8.1,24.8c0,3.8-0.5,7.4-1.5,11c0.2-0.1,0.3-0.2,0.5-0.2c46.6-19.4,100.3,2.8,119.7,49.5 c19.4,46.6-2.8,100.3-49.5,119.7c-46.6,19.4-100.3-2.8-119.7-49.5c-10.6-25.7-8.7-53.4,3-76.4c-11.2,2-23.1-0.4-32.6-7.5 c-0.4,0.2-0.7,0.3-1.1,0.4c-3.1,20.1-20.5,35.5-41.4,35.5c-1.2,14.4-0.5,29.1,2.5,43.8l-27.1,11.3c-6.6,2.7-9.8,10.3-7,17 l13.5,32.6c2.7,6.6,10.3,9.8,17,7l27.2-11.3c11.7,17.5,26.6,32.2,43.5,43.4l-11.2,27.2c-2.7,6.6,0.4,14.2,7,16.9l32.7,13.5 c6.6,2.7,14.2-0.4,16.9-7l11.2-27.2c19.9,4,40.8,4.1,61.5,0l11.3,27.1c2.7,6.6,10.3,9.8,17,7l32.6-13.5c6.6-2.7,9.8-10.3,7-17 l-11.3-27.1c17.5-11.7,32.2-26.6,43.4-43.5l27.2,11.2c6.6,2.7,14.2-0.4,16.9-7l13.5-32.7 C488.663,353.1,485.463,345.6,478.863,342.8z M31.363,148.1l-16.9-0.1c-6,0-10.9-4.9-10.9-11l0.1-18.4c0-6,4.9-10.9,11-10.9 l16.9,0.1c2.6-13,7.8-25.5,15.5-36.8l-11.8-11.9c-4.2-4.3-4.2-11.2,0.1-15.4l13-12.9c4.3-4.2,11.2-4.2,15.4,0.1l11.9,12 c11.4-7.6,24-12.6,37-15.1l0.1-16.9c0-6,4.9-10.9,11-10.9l18.4,0.1c6,0,10.9,4.9,10.9,11l-0.1,16.9c13,2.6,25.5,7.8,36.8,15.5 l12-11.9c4.3-4.2,11.2-4.2,15.4,0.1l12.9,13c4.2,4.3,4.2,11.2-0.1,15.4l-12,11.9c7.6,11.4,12.6,24,15.1,37l16.9,0.1 c6,0,10.9,4.9,10.9,11l-0.1,18.4c0,6-4.9,10.9-11,10.9l-16.9-0.1c-2.6,13-7.8,25.5-15.5,36.8l11.9,12c4.2,4.3,4.2,11.2-0.1,15.4 l-13,12.9c-4.3,4.2-11.2,4.2-15.4-0.1l-11.9-12c-11.4,7.6-24,12.6-37,15.1l-0.1,16.9c0,6-4.9,10.9-11,10.9l-18.4-0.1 c-6,0-10.9-4.9-10.9-11l0.1-16.9c-13-2.6-25.5-7.8-36.8-15.5l-12,11.9c-4.3,4.2-11.2,4.2-15.4-0.1l-12.9-13 c-4.2-4.3-4.2-11.2,0.1-15.4l12-11.9C38.863,173.7,33.863,161.1,31.363,148.1z M97.463,162.9c19,19.2,49.9,19.4,69.1,0.4 s19.4-49.9,0.4-69.1s-49.9-19.4-69.1-0.4C78.563,112.8,78.463,143.7,97.463,162.9z"/></g></svg>